<svg width="16" height="14" viewBox="0 0 16 14" fill="none" xmlns="http://www.w3.org/2000/svg">
<path d="M15.5122 5.53708C14.4389 3.74874 12.0355 0.74958 7.99968 0.74958C3.96468 0.74958 1.5605 3.74874 0.487168 5.53708C-0.0536654 6.43958 -0.0536654 7.56042 0.487168 8.46292C1.56133 10.2513 3.96468 13.2504 7.99968 13.2504C12.0355 13.2504 14.4389 10.2513 15.5122 8.46292C16.0539 7.56042 16.0539 6.43958 15.5122 5.53708ZM14.798 8.03374C13.8155 9.67041 11.6255 12.4162 7.99968 12.4162C4.37468 12.4162 2.18469 9.67041 1.20136 8.03374C0.818856 7.39624 0.818856 6.60375 1.20136 5.96626C2.18469 4.32959 4.37468 1.58375 7.99968 1.58375C11.6255 1.58375 13.8155 4.32959 14.798 5.96626C15.1805 6.60375 15.1805 7.39624 14.798 8.03374ZM7.99968 3.66709C6.16135 3.66709 4.66635 5.16209 4.66635 7.00042C4.66635 8.83875 6.16135 10.3338 7.99968 10.3338C9.83801 10.3338 11.333 8.83875 11.333 7.00042C11.333 5.16209 9.83801 3.66709 7.99968 3.66709ZM7.99968 9.50042C6.62135 9.50042 5.49968 8.37875 5.49968 7.00042C5.49968 5.62209 6.62135 4.50042 7.99968 4.50042C9.37801 4.50042 10.4997 5.62209 10.4997 7.00042C10.4997 8.37875 9.37801 9.50042 7.99968 9.50042Z" fill="#333232"/>
</svg>