<svg width="16" height="16" viewBox="0 0 16 16" fill="none" xmlns="http://www.w3.org/2000/svg">
<path d="M15.513 6.53553C15.0172 5.70886 14.1755 4.56885 12.9914 3.59552L14.9589 1.62802C15.1214 1.46552 15.1214 1.20136 14.9589 1.03886C14.7964 0.876356 14.5322 0.876356 14.3697 1.03886L9.7597 5.64887L9.75802 5.64968L9.75721 5.65052L1.03554 14.3722C0.873039 14.5347 0.873039 14.7989 1.03554 14.9614C1.11721 15.043 1.22388 15.083 1.33054 15.083C1.43721 15.083 1.54388 15.0422 1.62555 14.9614L3.67137 12.9155C4.99553 13.7972 6.44803 14.2505 7.9997 14.2505C12.0197 14.2505 14.4322 11.253 15.5139 9.46468C16.0539 8.56135 16.0539 7.43886 15.513 6.53553ZM10.498 8.00053C10.498 9.37886 9.37636 10.5005 7.99802 10.5005C7.46969 10.5005 6.9722 10.333 6.55553 10.0322L10.0297 6.55804C10.3297 6.9747 10.498 7.47219 10.498 8.00053ZM14.7997 9.03469C13.8097 10.6714 11.6105 13.4172 7.9997 13.4172C6.67387 13.4172 5.43053 13.0289 4.2847 12.303L5.96637 10.6213C6.5447 11.0755 7.24636 11.3339 7.99802 11.3339C9.83636 11.3339 11.3314 9.83886 11.3314 8.00053C11.3314 7.24886 11.0722 6.5472 10.6189 5.96887L12.4022 4.18552C13.5305 5.09469 14.3289 6.18054 14.7989 6.96387C15.1805 7.60304 15.1805 8.39719 14.7997 9.03469ZM1.59971 11.0189C1.19137 10.5355 0.817209 10.0122 0.486375 9.46552C-0.0536245 8.56136 -0.0536304 7.4397 0.485536 6.53637C1.5672 4.74803 3.9797 1.74969 7.9997 1.74969C8.77553 1.74969 9.52636 1.8622 10.2939 2.0922C10.5139 2.15886 10.6389 2.39052 10.573 2.61135C10.5064 2.83135 10.278 2.95637 10.0539 2.89054C9.3647 2.68304 8.69304 2.58302 7.9997 2.58302C4.38887 2.58302 2.1897 5.32886 1.1997 6.96552C0.818865 7.60302 0.818871 8.3972 1.20054 9.03637C1.5072 9.5447 1.85637 10.0314 2.23554 10.4805C2.38387 10.6564 2.36219 10.9197 2.18636 11.068C2.10802 11.1347 2.01303 11.1664 1.91803 11.1664C1.7997 11.1672 1.68221 11.1172 1.59971 11.0189ZM7.47638 4.71302C7.70304 4.67802 7.91636 4.83469 7.95136 5.06135C7.98636 5.28885 7.83052 5.50136 7.60302 5.53636C6.54802 5.69886 5.6972 6.54969 5.5347 7.60469C5.50303 7.81052 5.32554 7.95803 5.12304 7.95803C5.1022 7.95803 5.08054 7.95635 5.05888 7.95302C4.83138 7.91802 4.67554 7.70551 4.71054 7.47801C4.92804 6.06801 6.06554 4.93135 7.47638 4.71302Z" fill="#B9B9B9"/>
</svg>